<svg id="Layer_1" data-name="Layer 1" xmlns="http://www.w3.org/2000/svg" viewBox="0 0 731.47 731.47"><defs><style>.cls-1{fill-rule:evenodd;opacity:0.3;}</style></defs><path class="cls-1" d="M641,292.27C439,292.27,275.27,456,275.27,658S439,1023.73,641,1023.73,1006.73,860,1006.73,658,843,292.27,641,292.27ZM891.12,544.66,592.75,843a23.21,23.21,0,0,1-32.55,0L390.88,673.72a22.94,22.94,0,0,1,0-32.34L430.24,602a22.92,22.92,0,0,1,32.34,0L576.47,715.92,819.42,473a22.94,22.94,0,0,1,32.34,0l39.36,39.36A22.94,22.94,0,0,1,891.12,544.66Z" transform="translate(-275.27 -292.27)"/></svg>