<?xml version="1.0" encoding="UTF-8"?><svg xmlns="http://www.w3.org/2000/svg" viewBox="0 0 497.54 494.82"><defs><style>.d{fill:#fff;opacity:.39;}</style></defs><g id="a"/><g id="b"><g id="c"><g><path class="d" d="M484.74,261.22c4.72,40.42-7.12,91.7-36.23,120.94-64.34,40.52-113.2,120.68-197.84,112.02-65.41,4.29-112.35-30.31-155.33-74.09C21.36,387,15.6,295.5,14.13,224.65,27.67,98.18,168.56,34.88,275.48,.42c156.62-9.35,188.34,139.17,209.26,260.8Z"/><path class="d" d="M472.47,323.58c-6.27,40.21-31.41,86.44-67.29,106.82-72.84,21.82-141.38,85.97-220.6,54.96-64.17-13.38-100.14-59.28-129.82-112.97C-7.67,320.71,11.28,231,28.83,162.35,75.74,44.12,228.43,20.85,340.67,16.28c153.4,32.93,144.2,184.52,131.8,307.3Z"/><path class="d" d="M248.15,12.21c40.02-7.39,91.97,1.02,123.07,28.14,44.7,61.51,127.92,104.95,124.88,189.98,8.61,64.98-22.79,114.11-63.63,159.89-28.1,76.02-119.03,87.83-189.62,93.99C115.77,479.07,43.27,342.7,1.8,238.29-17.91,82.64,128.19,41.14,248.15,12.21Z"/><path class="d" d="M363.03,41.01c39.04,12.75,81.02,45.3,95.49,84.39,9.9,76.18,62.67,154.92,18.89,228.93-23.77,61.85-75.35,90.3-133.66,111.23-61.64,53.92-147.94,20.52-213.49-8.09C20.09,391.57,21.73,235.51,35.42,122.81,93.17-24.89,242.71,8.79,363.03,41.01Z"/></g></g></g></svg>