<?xml version="1.0" encoding="UTF-8"?><svg id="Calque_2" xmlns="http://www.w3.org/2000/svg" viewBox="0 0 77.41 77.41"><defs><style>.cls-1{fill:#f9e66e;}.cls-2{fill:#5d0482;}.cls-2,.cls-3{fill-rule:evenodd;}.cls-3{fill:#190038;}</style></defs><g id="Calque_1-2"><g><circle class="cls-1" cx="38.71" cy="38.71" r="38.71"/><path class="cls-3" d="M33.24,48.05l-7.38-12.77c-1.36-2.36-2.09-5.05-2.09-7.77,0-4.29,1.74-8.18,4.55-10.99,2.81-2.81,6.7-4.55,10.99-4.55s8.18,1.74,10.99,4.55c2.81,2.81,4.55,6.7,4.55,10.99,0,2.73-.72,5.41-2.09,7.77l-7.38,12.77c2.66,.54,4.83,1.44,6.41,2.58,1.98,1.44,3.05,3.26,3.05,5.27,0,2.49-1.66,4.71-4.65,6.24-2.64,1.35-6.37,2.19-10.9,2.19s-8.25-.83-10.9-2.19c-2.99-1.53-4.65-3.74-4.65-6.24,0-2.01,1.08-3.84,3.06-5.28,1.57-1.14,3.74-2.04,6.4-2.58h0Zm5.27,9.12l-4.27-7.39c-2.67,.47-4.8,1.3-6.29,2.38-1.48,1.07-2.28,2.37-2.28,3.74,0,1.75,1.29,3.37,3.62,4.56,2.38,1.22,5.81,1.97,10.04,1.97s7.66-.75,10.04-1.97c2.32-1.19,3.62-2.81,3.62-4.56,0-1.37-.8-2.67-2.27-3.74-1.49-1.08-3.62-1.92-6.3-2.38l-4.27,7.4c-.37,.64-1.28,.62-1.64,0h0Zm5.05-33.9c-1.08-1.08-2.58-1.75-4.23-1.75s-3.15,.67-4.23,1.75c-1.08,1.08-1.75,2.58-1.75,4.23s.67,3.15,1.75,4.23c1.08,1.08,2.58,1.75,4.23,1.75s3.15-.67,4.23-1.75,1.75-2.58,1.75-4.23-.67-3.15-1.75-4.23Z"/><path class="cls-2" d="M27.5,34.33l11.83,20.49,11.83-20.49c1.2-2.07,1.83-4.43,1.83-6.83,0-3.77-1.53-7.19-4-9.66-2.47-2.47-5.89-4-9.66-4s-7.19,1.53-9.66,4c-2.47,2.47-4,5.89-4,9.66,0,2.39,.63,4.75,1.83,6.83h0Zm11.83-14.7c2.17,0,4.14,.88,5.57,2.31,1.43,1.42,2.31,3.39,2.31,5.57s-.88,4.14-2.31,5.57c-1.42,1.42-3.39,2.31-5.57,2.31s-4.14-.88-5.57-2.31c-1.43-1.42-2.31-3.39-2.31-5.57s.88-4.14,2.31-5.57c1.42-1.42,3.39-2.31,5.57-2.31Z"/></g></g></svg>