<svg id="Calque_1" data-name="Calque 1" xmlns="http://www.w3.org/2000/svg" viewBox="0 0 332.21 69.25"><defs><style>.cls-1{fill:#fff;}</style></defs><path class="cls-1" d="M871.82,294.69q-8.55,17.9-17.1,18-10.35.07-15.13-9-3.71-6.94-3.79-18.19a61.88,61.88,0,0,1,4-23.11q4.66-12.15,12.69-12.92c.78-.05,1.53-.07,2.25-.07,5,0,8.83,1.86,11.53,5.58q3,4.23,5,13.44A19,19,0,0,1,872.8,273q0,2.49-3.69,3.85a5.43,5.43,0,0,1-1.89.3,14,14,0,0,1-5.76-1.43c-2.47-1.11-3.7-2.31-3.7-3.62A17.86,17.86,0,0,1,859,269.1a18.68,18.68,0,0,0-1.44-6.3c-.84-2-1.8-3.08-2.88-3.29q-2.54-.52-4.41,8.39a94.18,94.18,0,0,0-2,16.31,51.9,51.9,0,0,0,.91,12.46q1.35,6.56,4.06,7c1.08.15,2.37-1,3.87-3.4a32.44,32.44,0,0,0,3.59-7.86,6.15,6.15,0,0,1-.18-1.43q0-4.46,6.49-4.46a18.62,18.62,0,0,1,2.88.22q4.41.76,4.41,3.7A5.19,5.19,0,0,1,871.82,294.69Z" transform="translate(-835.79 -244.99)"/><path class="cls-1" d="M914,284.33q-.36,6.3.19,18.09a6,6,0,0,0,.63,2.21,5.89,5.89,0,0,1,.63,2c0,1.05-1,1.95-3.06,2.68a4.61,4.61,0,0,1-1.62.24,16,16,0,0,1-6.3-1.42q-4-1.65-4-3.93a6.27,6.27,0,0,1,.86-2.67l1.66-3.23V284.8L890.91,287q0,3.86.09,10.86t.1,7.08a11.4,11.4,0,0,0,.58,2.91,11.18,11.18,0,0,1,.59,2.84,3.14,3.14,0,0,1-1.21,2.56,5.12,5.12,0,0,1-3.29,1,10.63,10.63,0,0,1-4.41-1,7.66,7.66,0,0,1-3-2.08,3.35,3.35,0,0,1-.77-1.54,11.1,11.1,0,0,1,.72-1.65q0-3.39-.09-11c-.06-5.08-.1-8.34-.1-9.75q-.09-.24-2.16-3.39a4.22,4.22,0,0,1-.9-3.38,2.17,2.17,0,0,1,1.08-1.42l1.8-1.1q-.28-18.72.17-25.33a5,5,0,0,1-.81-2.29c0-1.15.92-2.12,2.79-2.91a9.35,9.35,0,0,1,3.33-.47q7,0,8.55,3.3a3,3,0,0,1,.28,1.18,6.66,6.66,0,0,1-1.58,3.26,6.68,6.68,0,0,0-1.57,3.59q-.54,12.58-.17,18.72,8.82-1.33,11.7-2.05a142.06,142.06,0,0,1,.17-22.5,9,9,0,0,1-.81-3.23q0-2.35,3.33-3.86a5.56,5.56,0,0,1,2.07-.31,14.77,14.77,0,0,1,6.12,1.33q3.43,1.58,3.52,4c.06.73-.47,1.65-1.58,2.75a4.51,4.51,0,0,0-1.66,2.91q-.18,11.34.19,19a14.14,14.14,0,0,1,2.93,3,5.93,5.93,0,0,1,1.48,3.23,2,2,0,0,1-1.53,1.89Z" transform="translate(-835.79 -244.99)"/><path class="cls-1" d="M968.71,279.32a43.14,43.14,0,0,1-4.13,20.6q-4.77,10.6-10.17,12a12.62,12.62,0,0,1-4.23.44l-4.24-.44q-18.56-1.78-20.45-32.54a41.06,41.06,0,0,1,3.23-17.87q3.51-8.87,7.29-11a3.86,3.86,0,0,1,2-.53,12.36,12.36,0,0,1,2.52.41,11.78,11.78,0,0,0,2.61.41,33.48,33.48,0,0,0,3.92-.41,33.21,33.21,0,0,1,4.19-.41,6,6,0,0,1,2.07.3Q967.27,255,968.71,279.32Zm-12.15,0a70.59,70.59,0,0,0-2.44-14q-2.54-7.89-7.48-7.89a7.77,7.77,0,0,0-2.84.59q-1.49.6-3.91,7.68a39.94,39.94,0,0,0,.73,29.75q3.25,8.44,6.22,8.45,2.79,0,6.21-7.6a36.12,36.12,0,0,0,3.6-15C956.65,280.64,956.61,280,956.56,279.33Z" transform="translate(-835.79 -244.99)"/><path class="cls-1" d="M990.43,310q-.81,1.89-4.68,1.89a19.88,19.88,0,0,1-2.34-.15q-7.39-1-8.65-3.69a2.32,2.32,0,0,1-.27-1.06c0-1.06.69-2.11,2.07-3.17q-.37-11.32-1.64-46.21a4.15,4.15,0,0,0-.63-2.3,4.68,4.68,0,0,1-.73-1.93c0-.9.69-1.86,2.07-2.87a6.79,6.79,0,0,1,4.06-1.05,17.23,17.23,0,0,1,6.3,1.28q4,1.58,4,3.84a19.19,19.19,0,0,1-1.88,4.08l.92,45.76a4.92,4.92,0,0,0,.81,2.3,4.86,4.86,0,0,1,.81,2.23A3.22,3.22,0,0,1,990.43,310Z" transform="translate(-835.79 -244.99)"/><path class="cls-1" d="M1033,295.46q-8.55,17.44-17.11,17.52-10.35.07-15.13-8.75-3.69-6.76-3.79-17.73a59.07,59.07,0,0,1,4-22.51q4.68-11.85,12.69-12.59c.78-.05,1.54-.08,2.26-.08q7.47,0,11.53,5.44,3,4.13,5,13.1a18,18,0,0,1,1.54,4.41q0,2.43-3.69,3.76a5.69,5.69,0,0,1-1.89.29,14.37,14.37,0,0,1-5.77-1.39q-3.69-1.62-3.69-3.53a16.82,16.82,0,0,1,1.26-2.87,17.85,17.85,0,0,0-1.45-6.15c-.84-1.94-1.8-3-2.88-3.2q-2.52-.51-4.41,8.17a89.71,89.71,0,0,0-2,15.9,49.33,49.33,0,0,0,.9,12.14q1.37,6.39,4.06,6.84,1.62.21,3.87-3.31a31.25,31.25,0,0,0,3.6-7.66,5.91,5.91,0,0,1-.18-1.4q0-4.33,6.48-4.34a18.62,18.62,0,0,1,2.88.22c2.94.49,4.42,1.69,4.42,3.6A5,5,0,0,1,1033,295.46Z" transform="translate(-835.79 -244.99)"/><path class="cls-1" d="M1075.15,257.53a9.18,9.18,0,0,1-5.32,1.43,25.7,25.7,0,0,1-3.15-.22q-2.61.67-4.68,1.36a28.06,28.06,0,0,0-6.66,2.72,149,149,0,0,0,0,18,10.56,10.56,0,0,1,2.71-.61,4.15,4.15,0,0,1,3.69-1.58,12.11,12.11,0,0,1,6.08,2.11q3.47,2.12,3.47,4.15a2.32,2.32,0,0,1-.27,1.06,5,5,0,0,1-3.33,2.87,12.62,12.62,0,0,1-4,.19,9.26,9.26,0,0,0-3.33.11c-1.38.56-3.06,1.21-5,2q0,6.79.54,8.76a33.44,33.44,0,0,0,6.31-1.82c.3-.35.6-.68.9-1a4.4,4.4,0,0,1,3.24-.68,9.12,9.12,0,0,1,5.22,2.41q2.71,2.26,2.71,4.61a3.2,3.2,0,0,1-2.07,3q-2.07,1-6.94.68l-8.46,3.55a17.84,17.84,0,0,0-2.34,1.51,4.27,4.27,0,0,1-2.43,1,5,5,0,0,1-.81-.08q-4.79-1.2-8.65-6.26a1.51,1.51,0,0,1-.27-.91,29.92,29.92,0,0,1,1-3q-1-22-.38-46.81a2.31,2.31,0,0,1-.63-1.51c0-1.66,1.83-2.72,5.49-3.17a6.44,6.44,0,0,1,3,.52c.78.36,1.53.68,2.25,1L1063.8,250a14.41,14.41,0,0,0,2.07-.91,5.84,5.84,0,0,1,2.7-.6,11.65,11.65,0,0,1,1.71.15,6.69,6.69,0,0,1,3.92,2.6,7,7,0,0,1,1.94,4.34A2.25,2.25,0,0,1,1075.15,257.53Z" transform="translate(-835.79 -244.99)"/><path class="cls-1" d="M1095,260.08q-1.53,2.12-2.88,9.44A60.7,60.7,0,0,0,1091,279q0,14.51,4.15,22.8a6.55,6.55,0,0,0,1.76,2.91,5,5,0,0,1,1.57,2.9,3.22,3.22,0,0,1-2,3,9.78,9.78,0,0,1-4.46,1q-4.5,0-6.93-2.41c-.72-.71-1.27-2.37-1.63-5a82.63,82.63,0,0,1-3.79-25.67,63.75,63.75,0,0,1,1.43-11.1,53.85,53.85,0,0,1,4-13.51,23,23,0,0,1,.72-2.87,4.44,4.44,0,0,1,1.62-2,4.66,4.66,0,0,1,2.79-.68,12.18,12.18,0,0,1,5.9,1.55q2.84,1.55,2.84,3.88a3.61,3.61,0,0,1-.18,1.1,7,7,0,0,1-1.8,2A6,6,0,0,0,1095,260.08Z" transform="translate(-835.79 -244.99)"/><path class="cls-1" d="M1142.89,298a14.07,14.07,0,0,1-4.46,10.31,15,15,0,0,1-11,4.42q-13.23,0-19.45-10.56-6.77-3.69-6.76-6.26c0-.86.63-1.56,1.89-2.12a16.74,16.74,0,0,1,6.75-1.66q6.68,0,8.92,6.64c.72,1.21,1.47,2.42,2.26,3.62a3.58,3.58,0,0,0,3.15,1.81q5.31,0,5.31-6.34,0-5.67-2.44-7.63-1.08-.82-8.64-3.46a19.73,19.73,0,0,1-9.73-7.25,17,17,0,0,1-3.43-9.74,22.52,22.52,0,0,1,4.86-14.5q5.22-6.8,13-6.8,9,0,13.15,6a17.67,17.67,0,0,1,3.07,9.36,16.12,16.12,0,0,1,1,5.21,6,6,0,0,1-.45,2.49q-1.35,2.79-5.31,2.8a8.87,8.87,0,0,1-5.4-1.81,8.35,8.35,0,0,1-3.34-5.51,3,3,0,0,1,.59-2.42,6.61,6.61,0,0,0,.85-1.36.41.41,0,0,0-.18-.3,3.29,3.29,0,0,0,.09-.76c0-1.51-1-2.21-3.15-2.11a5.58,5.58,0,0,0-4.77,3.4,11.87,11.87,0,0,0-1.35,6.42q.27,6.42,10.09,10.26,7.74,3,10.72,6Q1142.88,290.34,1142.89,298Z" transform="translate(-835.79 -244.99)"/><path class="cls-1" d="M1168,281.34a63.52,63.52,0,0,1-1.43,11.1,54,54,0,0,1-4,13.52,23,23,0,0,1-.72,2.87,4,4,0,0,1-1.48,1.85,5.09,5.09,0,0,1-2.93.72,12.17,12.17,0,0,1-5.76-1.43q-3-1.59-3-3.93a3.55,3.55,0,0,1,.18-1.09,7,7,0,0,1,1.8-2,6,6,0,0,0,2-3.14q1.53-2.11,2.88-9.44a60.87,60.87,0,0,0,1.08-9.44q0-14.49-4.16-22.8a6.49,6.49,0,0,0-1.76-2.9,5,5,0,0,1-1.57-2.91,3.45,3.45,0,0,1,2.16-3.1,10.57,10.57,0,0,1,11.26,1.51c.72.7,1.26,2.37,1.62,5A82.68,82.68,0,0,1,1168,281.34Z" transform="translate(-835.79 -244.99)"/></svg>