<?xml version="1.0" encoding="UTF-8"?><svg xmlns="http://www.w3.org/2000/svg" viewBox="0 0 184.67 47.98"><defs><style>.d{fill:#fff;}</style></defs><g id="a"/><g id="b"><g id="c"><g><g><path class="d" d="M52.06,13.03c-.02-1.77,.33-3.53,1.04-5.15,.66-1.51,1.61-2.88,2.81-4.02,1.22-1.14,2.65-2.03,4.21-2.61C63.44,0,67.1,0,70.43,1.24c1.55,.59,2.98,1.48,4.2,2.61,1.19,1.14,2.15,2.51,2.81,4.02,1.39,3.3,1.39,7.01,0,10.31-.66,1.51-1.62,2.88-2.81,4.02-1.22,1.14-2.64,2.02-4.2,2.61-1.64,.63-3.39,.95-5.14,.94-1.76,0-3.51-.31-5.15-.94-1.56-.59-2.99-1.48-4.21-2.61-1.2-1.14-2.15-2.5-2.81-4.02-.71-1.62-1.07-3.38-1.05-5.15Zm4.22,0c-.01,1.18,.23,2.34,.71,3.41,.44,1.01,1.08,1.93,1.87,2.7,.83,.77,1.8,1.38,2.86,1.78,2.28,.85,4.78,.85,7.06,0,1.06-.4,2.03-1.01,2.86-1.78,2.55-2.48,3.29-6.27,1.87-9.53-.44-1.01-1.08-1.93-1.87-2.7-.83-.77-1.8-1.38-2.86-1.78-2.28-.85-4.78-.85-7.06,0-1.06,.41-2.03,1.01-2.86,1.78-.8,.77-1.43,1.68-1.87,2.7-.48,1.08-.72,2.24-.71,3.42Z"/><path class="d" d="M110.3,.63V25.22h-4.26V5.03l-8.34,20.23h-3.65l-8.53-20.23V25.26h-4.22V.64h6.97l7.5,18.13L103.27,.63h7.04Z"/><path class="d" d="M133.01,17.24V.63h4.41V25.22h-3.68l-15.72-19.41V25.22h-4.34V.64h5.83l13.5,16.59Z"/><path class="d" d="M160.08,4.85h-16.58l1.47,1.73v4.02h13.04v4.23h-13.04v6.2h15.82v4.23h-20.04V.64h19.33V4.85Z"/><path class="d" d="M181.4,7.11c-.52-.47-1.09-.88-1.71-1.23-.6-.33-1.23-.6-1.87-.82-.59-.2-1.21-.35-1.83-.44-.55-.08-1.1-.13-1.65-.13-.6,0-1.19,.04-1.78,.11-.61,.08-1.22,.22-1.8,.43-.53,.2-1.01,.52-1.41,.94-.38,.42-.59,.97-.56,1.54,.01,.41,.13,.82,.34,1.17,.33,.49,.84,.83,1.42,.94,.55,.15,1.19,.29,1.92,.43l2.27,.39,2.25,.37c.73,.12,1.36,.24,1.87,.37,.99,.21,1.93,.56,2.81,1.06,.68,.4,1.29,.92,1.78,1.54,.43,.56,.75,1.19,.94,1.87,.18,.73,.27,1.47,.27,2.22,.03,1.2-.23,2.39-.75,3.47-.47,.96-1.17,1.79-2.02,2.44-.91,.67-1.94,1.15-3.04,1.43-1.2,.32-2.44,.49-3.68,.48-1.55,.02-3.09-.14-4.6-.48-1.19-.26-2.34-.67-3.43-1.21-.87-.42-1.67-.96-2.38-1.6-.55-.49-1.03-1.04-1.44-1.65l3.53-2.55c.42,.59,.94,1.1,1.55,1.5,.64,.44,1.34,.82,2.06,1.12,.74,.3,1.52,.53,2.3,.68,.73,.14,1.48,.22,2.22,.22,.72,0,1.44-.07,2.15-.22,.6-.13,1.17-.37,1.69-.71,.46-.3,.84-.7,1.12-1.17,.29-.5,.43-1.07,.41-1.65,.03-.57-.13-1.14-.47-1.6-.34-.42-.8-.75-1.31-.94-.63-.24-1.29-.4-1.96-.48-.75-.1-1.56-.2-2.43-.29s-1.78-.22-2.72-.37c-.95-.16-1.89-.39-2.81-.68-1.28-.42-2.4-1.21-3.21-2.28-.7-1-1.07-2.19-1.04-3.41-.11-2.33,1.06-4.53,3.05-5.74,.96-.59,2.02-1.01,3.12-1.24,1.16-.25,2.35-.38,3.54-.37,1.12,0,2.23,.11,3.33,.34,1.01,.22,1.99,.53,2.94,.94,.85,.33,1.65,.76,2.41,1.27,.63,.42,1.22,.9,1.75,1.43l-3.14,2.56Z"/></g><g><path class="d" d="M62.22,36.32h-6.66l.59,.67v1.56h5.24v1.62h-5.24v2.41h6.36v1.63h-8.05v-9.52h7.77v1.63Z"/><path class="d" d="M73.62,34.69c.66,0,1.28,.13,1.86,.38s1.09,.6,1.52,1.03c.43,.44,.77,.94,1.03,1.51,.25,.57,.38,1.18,.38,1.82s-.13,1.28-.38,1.85c-.25,.58-.59,1.08-1.03,1.52-.43,.43-.94,.78-1.52,1.03-.58,.25-1.2,.37-1.86,.37h-4.74v-9.52h4.74Zm3.06,4.76c0-.42-.08-.82-.24-1.2-.16-.38-.38-.7-.66-.99-.28-.28-.6-.51-.97-.67-.37-.16-.77-.25-1.2-.25h-3.03v6.19h3.03c.43,0,.83-.08,1.2-.25,.37-.16,.7-.39,.97-.66s.5-.61,.66-.98c.16-.38,.24-.77,.24-1.2Z"/><path class="d" d="M86.27,40.07c0,.5,.09,.92,.27,1.26,.18,.34,.41,.62,.7,.83s.61,.36,.97,.46c.36,.09,.73,.14,1.1,.14s.73-.05,1.09-.14c.36-.09,.69-.25,.97-.46s.52-.49,.7-.83c.18-.34,.27-.76,.27-1.26v-5.38h1.72v5.65c0,.65-.13,1.23-.39,1.73-.26,.5-.61,.92-1.04,1.27-.44,.34-.94,.6-1.51,.78-.57,.18-1.17,.27-1.8,.27s-1.25-.09-1.83-.27c-.58-.18-1.08-.44-1.52-.78-.44-.34-.78-.76-1.04-1.27-.26-.5-.39-1.08-.39-1.73v-5.65h1.73v5.38Z"/><path class="d" d="M110.21,41.88c-.19,.42-.45,.79-.77,1.11-.32,.32-.69,.58-1.1,.79-.41,.21-.85,.37-1.34,.48-.48,.11-.98,.16-1.49,.16-.8,0-1.53-.12-2.18-.37-.65-.25-1.22-.59-1.68-1.04s-.83-.96-1.08-1.56c-.25-.6-.38-1.25-.38-1.95,0-.77,.14-1.46,.43-2.07s.68-1.13,1.16-1.55c.49-.42,1.06-.74,1.7-.97,.65-.22,1.32-.34,2.03-.34,1.08,0,2.03,.24,2.84,.73s1.44,1.16,1.9,2l-1.52,.68c-.18-.27-.37-.51-.58-.73-.21-.22-.45-.4-.7-.56-.26-.15-.54-.27-.86-.35-.32-.08-.67-.12-1.07-.12-.49,0-.95,.07-1.39,.22s-.81,.36-1.14,.65c-.32,.28-.58,.63-.77,1.03-.19,.4-.29,.86-.29,1.38s.1,.95,.29,1.35c.19,.4,.45,.74,.77,1.03,.33,.28,.7,.5,1.14,.66s.9,.23,1.39,.23c.35,0,.68-.03,1.01-.1,.32-.06,.63-.16,.91-.29s.53-.3,.75-.51c.22-.21,.41-.45,.56-.74l1.47,.75Z"/><path class="d" d="M122.7,34.69l4.2,9.52h-1.84l-.9-2h-5.42l-.87,2h-1.85l4.19-9.52h2.48Zm-1.23,1.34l-1.96,4.49h3.93l-1.96-4.49Z"/><path class="d" d="M132.54,34.69h9.29v1.63h-3.77v7.89h-1.73v-7.89h-3.79v-1.63Z"/><path class="d" d="M149.7,44.21h-1.86v-9.52h1.86v9.52Z"/><path class="d" d="M155.91,39.48c0-.73,.14-1.39,.42-1.99,.28-.6,.66-1.12,1.14-1.56,.48-.43,1.05-.77,1.69-1.01s1.34-.36,2.07-.36,1.42,.12,2.06,.36,1.2,.58,1.68,1.01c.48,.43,.86,.95,1.14,1.56,.28,.6,.42,1.27,.42,1.99s-.14,1.39-.42,1.99c-.28,.6-.66,1.12-1.14,1.56-.48,.44-1.04,.77-1.68,1.01-.64,.24-1.33,.36-2.06,.36s-1.42-.12-2.07-.36c-.65-.24-1.21-.58-1.69-1.01-.48-.43-.86-.95-1.14-1.56-.28-.6-.42-1.27-.42-1.99Zm1.7,0c0,.48,.1,.92,.29,1.32s.45,.75,.77,1.04,.71,.53,1.15,.69c.44,.16,.91,.25,1.42,.25s.98-.08,1.42-.25c.44-.16,.82-.4,1.15-.69,.32-.3,.58-.64,.77-1.04,.19-.4,.28-.84,.28-1.32s-.09-.92-.28-1.32c-.19-.4-.44-.75-.77-1.04-.33-.3-.71-.53-1.15-.69-.44-.16-.91-.25-1.42-.25s-.98,.08-1.42,.25c-.44,.16-.82,.4-1.15,.69s-.58,.64-.77,1.04-.29,.84-.29,1.32Z"/><path class="d" d="M180.51,41.12v-6.43h1.77v9.52h-1.48l-6.31-7.52v7.52h-1.75v-9.52h2.34l5.42,6.43Z"/></g><g><path class="d" d="M47.98,26.01c-3.37,5.2-7.63,9.78-12.59,13.53-7.74,5.66-15.6,9.81-23.65,8.01-2.46-.56-6.42-3.17-5.97-9.24,.47-4.42,2.05-8.66,4.6-12.31h0s-5.28,7.85-1.77,12.62c3.69,4.99,14.07-.42,15.81-1.61,0,0,7.21-4.67,11.07-11h12.49Z"/><path class="d" d="M0,22.01c3.38-5.2,7.64-9.82,12.6-13.58C20.33,2.77,28.19-1.38,36.24,.43c2.46,.55,6.42,3.16,5.97,9.23-.46,4.44-2.04,8.69-4.6,12.36h0s5.28-7.84,1.77-12.62c-3.68-4.99-14.07,.43-15.81,1.61,0,0-7.2,4.67-11.07,11H0Z"/></g></g></g></g></svg>