<svg xmlns="http://www.w3.org/2000/svg" viewBox="0 0 57.59 57.59"><defs><style>.cls-1,.cls-3{fill:#f9e66e;}.cls-2{fill:#190038;}.cls-2,.cls-3{fill-rule:evenodd;}</style></defs><g id="Calque_2" data-name="Calque 2"><g id="Calque_1-2" data-name="Calque 1"><circle class="cls-1" cx="28.8" cy="28.8" r="28.8"/><path class="cls-2" d="M17.68,20.23a2.73,2.73,0,0,1,1.67-1.73,12,12,0,0,1-.49-3.27,7.55,7.55,0,0,1,1.68-4.94c1.92-2.35,5.29-3.48,8.26-3.48s6.33,1.13,8.25,3.48a7.55,7.55,0,0,1,1.69,4.94,12.42,12.42,0,0,1-.49,3.27,2.76,2.76,0,0,1,1.67,1.73,4.23,4.23,0,0,1,0,2.7,3.21,3.21,0,0,1-2.2,2.18,11.09,11.09,0,0,1-3.17,6.31v2.87l2,2,9.55,2.56a.72.72,0,0,1,.4,1.11,21.22,21.22,0,0,1-7.56,7.13A20.87,20.87,0,0,1,11.12,39.9a.71.71,0,0,1,.42-1.07l9.55-2.56,2-2V31.42A11.09,11.09,0,0,1,19.9,25.1a3.18,3.18,0,0,1-2.2-2.17,4.16,4.16,0,0,1,0-2.7Zm11.12-12c-2.54,0-5.5.93-7.15,2.95a6.17,6.17,0,0,0-1.36,4,8,8,0,0,0,.06,1,6.35,6.35,0,0,1,1.37-2.4,3.76,3.76,0,0,1,4-1,9.78,9.78,0,0,0,6.19,0,3.76,3.76,0,0,1,4,1,6.35,6.35,0,0,1,1.37,2.4,8,8,0,0,0,.06-1,6.17,6.17,0,0,0-1.36-4c-1.65-2-4.61-2.95-7.14-2.95Zm-7.68,29.5c-.51,0-8.24,2.21-8.24,2.21a19.44,19.44,0,0,0,31.83,0l-8.24-2.21S31.35,35.05,21.12,37.75Z"/><path class="cls-3" d="M28.8,33.45a8.86,8.86,0,0,1-4.29-1V42.66l4.29-4.09,4.28,4.09V32.45a8.85,8.85,0,0,1-4.28,1Zm8.27-9.71a1.67,1.67,0,0,0,1.46-1.28,2.73,2.73,0,0,0,0-1.74,1.4,1.4,0,0,0-.78-.84.73.73,0,0,1-1.44-.14c0-1.59-.37-3.76-1.51-4.95a2.35,2.35,0,0,0-2.55-.62,11.14,11.14,0,0,1-7,0,2.33,2.33,0,0,0-2.54.62c-1.15,1.19-1.52,3.36-1.52,4.95a.73.73,0,0,1-1.44.14,1.36,1.36,0,0,0-.77.84,2.66,2.66,0,0,0,0,1.74,1.67,1.67,0,0,0,1.46,1.28.73.73,0,0,1,.71.61,10.29,10.29,0,0,0,2.56,5.77,6.77,6.77,0,0,0,5,1.89,6.74,6.74,0,0,0,5-1.89,10.37,10.37,0,0,0,2.57-5.77A.71.71,0,0,1,37.07,23.74Z"/></g></g></svg>