<svg xmlns="http://www.w3.org/2000/svg" viewBox="0 0 1327.67 89.84"><defs><style>.cls-1{opacity:0.49;}.cls-2,.cls-3,.cls-4{fill:none;stroke:#fff;stroke-miterlimit:10;stroke-width:0.5px;fill-rule:evenodd;}.cls-2{opacity:0.39;}.cls-3{opacity:0.2;}.cls-4{opacity:0.23;}</style></defs><g id="Calque_2" data-name="Calque 2"><g id="Calque_1-2" data-name="Calque 1"><g class="cls-1"><path class="cls-2" d="M1327.5,47.13C1307.15,65,1273.57,84,1230.88,81.58c-32.32-1.86-54.87-15.36-76.59-26.8-32.32-17-74-32.27-122.41-33.61-32.39-.9-64,4.54-93.92,10.4C882.78,42.35,828.81,54.93,771.05,62.11S650,70.7,595.34,59.35C550.14,50,514,32.64,468.84,23.23,404,9.72,323.34,15.07,268.9,36.48c-26.51,10.43-51.22,25.13-85.74,25.31-23.1.12-43.48-6.53-63.43-12C82.92,39.64,42.15,32.71.09,29.45"/><path class="cls-3" d="M.2,45.82c20.23-7.09,53.6-14.64,96.05-13.73,32.14.7,54.57,6,76.18,10.49A630.25,630.25,0,0,0,294.18,55.69c32.21.32,63.58-1.87,93.38-4.22,54.87-4.33,108.52-9.36,166-12.27s120.34-3.55,174.72.86c44.95,3.65,80.9,10.45,125.82,14.11,64.49,5.25,144.68,3,198.8-5.49,26.35-4.15,50.91-10,85.24-10.1,23-.08,43.23,2.52,63.07,4.67,36.62,4,77.17,6.63,119,7.87"/><path class="cls-4" d="M.2,47.8C18.28,23.31,48.14-2.77,86.18.53,115,3,135.11,21.5,154.5,37.14,183.35,60.42,220.55,81.23,263.66,83c28.86,1.2,57-6.28,83.64-14.34,49.14-14.83,97.18-32.1,148.62-42s107.81-11.9,156.56,3.57C692.77,43,725,66.72,765.29,79.55,823.1,98,894.94,90.57,943.38,61.18,967,46.87,988.94,26.73,1019.7,26.44c20.57-.2,38.75,8.88,56.54,16.38,32.83,13.83,63.39,45.7,237.46,39.15"/></g></g></g></svg>